<svg display="none" xmlns="http://www.w3.org/2000/svg">
    <symbol id="facebook" viewBox="0 0 512 512">
      <g>
		<path d="M288,176v-64c0-17.664,14.336-32,32-32h32V0h-64c-53.024,0-96,42.976-96,96v80h-64v80h64v256h96V256h64l32-80H288z"/>
	</g>
    </symbol>

    <symbol id="instagram" viewBox="0 0 300 300">
        <g>
            <path d="M38.52,0.012h222.978C282.682,0.012,300,17.336,300,38.52v222.978c0,21.178-17.318,38.49-38.502,38.49
                H38.52c-21.184,0-38.52-17.313-38.52-38.49V38.52C0,17.336,17.336,0.012,38.52,0.012z M218.546,33.329
                c-7.438,0-13.505,6.091-13.505,13.525v32.314c0,7.437,6.067,13.514,13.505,13.514h33.903c7.426,0,13.506-6.077,13.506-13.514
                V46.854c0-7.434-6.08-13.525-13.506-13.525H218.546z M266.084,126.868h-26.396c2.503,8.175,3.86,16.796,3.86,25.759
                c0,49.882-41.766,90.34-93.266,90.34c-51.487,0-93.254-40.458-93.254-90.34c0-8.963,1.37-17.584,3.861-25.759H33.35v126.732
                c0,6.563,5.359,11.902,11.916,11.902h208.907c6.563,0,11.911-5.339,11.911-11.902V126.868z M150.283,90.978
                c-33.26,0-60.24,26.128-60.24,58.388c0,32.227,26.98,58.375,60.24,58.375c33.278,0,60.259-26.148,60.259-58.375
                C210.542,117.105,183.561,90.978,150.283,90.978z"/>
        </g>
    </symbol>

     <symbol id="linkedin" viewBox="-21 -35 682.66669 682">
        <g>
            <path d="m77.613281-.667969c-46.929687 0-77.613281 30.816407-77.613281 71.320313 0 39.609375 29.769531 71.304687 75.8125 71.304687h.890625c47.847656 0 77.625-31.695312 77.625-71.304687-.894531-40.503906-29.777344-71.320313-76.714844-71.320313zm0 0"/>
            <path d="m8.109375 198.3125h137.195313v412.757812h-137.195313zm0 0"/>
            <path d="m482.054688 188.625c-74.011719 0-123.640626 69.546875-123.640626 69.546875v-59.859375h-137.199218v412.757812h137.191406v-230.5c0-12.339843.894531-24.660156 4.519531-33.484374 9.917969-24.640626 32.488281-50.167969 70.390625-50.167969 49.644532 0 69.5 37.851562 69.5 93.339843v220.8125h137.183594v-236.667968c0-126.78125-67.6875-185.777344-157.945312-185.777344zm0 0"/>
        </g>
    </symbol>

     <symbol id="odnoklassniki" viewBox="0 0 24 24">
        <g>
            <path d="m4.721 12.881c-.613 1.205.083 1.781 1.671 2.765 1.35.834 3.215 1.139 4.413 1.261-.491.472 1.759-1.692-4.721 4.541-1.374 1.317.838 3.43 2.211 2.141l3.717-3.585c1.423 1.369 2.787 2.681 3.717 3.59 1.374 1.294 3.585-.801 2.226-2.141-.102-.097-5.037-4.831-4.736-4.541 1.213-.122 3.05-.445 4.384-1.261l-.001-.001c1.588-.989 2.284-1.564 1.68-2.769-.365-.684-1.349-1.256-2.659-.267 0 0-1.769 1.355-4.622 1.355-2.854 0-4.622-1.355-4.622-1.355-1.309-.994-2.297-.417-2.658.267z"/>
            <path d="m11.999 12.142c3.478 0 6.318-2.718 6.318-6.064 0-3.36-2.84-6.078-6.318-6.078-3.479 0-6.319 2.718-6.319 6.078 0 3.346 2.84 6.064 6.319 6.064zm0-9.063c1.709 0 3.103 1.341 3.103 2.999 0 1.644-1.394 2.985-3.103 2.985s-3.103-1.341-3.103-2.985c-.001-1.659 1.393-2.999 3.103-2.999z"/>
        </g>
    </symbol>

      <symbol id="google" viewBox="0 0 16 16">
        <g>
            <path d="M16 3.9h-2.8v-2.6h-0.6v2.6h-2.7v0.8h2.7v2.6h0.6v-2.6h2.8z"></path>
            <path d="M6.9 9c-0.4-0.2-1.1-0.9-1.1-1.3s0.1-0.7 0.8-1.2c0.7-0.5 1.2-1.2 1.2-2.1 0-1.1-0.5-2.1-1.3-2.4h1.3l0.9-0.7c0 0-3.1 0-4.2 0-1.9 0-3.6 1.4-3.6 3.1s1.3 3 3.2 3c0.1 0 0.3 0 0.4 0-0.2 0.2-0.2 0.4-0.2 0.7 0 0.5 0.3 0.8 0.6 1.2-0.2 0-0.5 0-0.7 0-2.3 0-4.1 1.5-4.1 3s2 2.5 4.3 2.5c2.6 0 4.1-1.5 4.1-3-0.1-1.3-0.5-2-1.6-2.8zM4.7 6.9c-1.1 0-2.1-1.2-2.3-2.6s0.5-2.5 1.6-2.5c1.1 0 2.1 1.2 2.3 2.6s-0.5 2.6-1.6 2.5zM4.3 14.1c-1.6 0-2.8-1-2.8-2.2s1.4-2.2 3-2.2c0.4 0 0.7 0.1 1 0.2 0.9 0.6 1.5 0.9 1.7 1.6 0 0.1 0.1 0.3 0.1 0.4 0 1.2-0.8 2.2-3 2.2z"></path>
        </g>
    </symbol>

     <symbol id="vk" viewBox="0 0 24 24" >
        <g>
           <path d="m19.915 13.028c-.388-.49-.277-.708 0-1.146.005-.005 3.208-4.431 3.538-5.932l.002-.001c.164-.547 0-.949-.793-.949h-2.624c-.668 0-.976.345-1.141.731 0 0-1.336 3.198-3.226 5.271-.61.599-.892.791-1.225.791-.164 0-.419-.192-.419-.739v-5.105c0-.656-.187-.949-.74-.949h-4.126c-.419 0-.668.306-.668.591 0 .622.945.765 1.043 2.515v3.797c0 .832-.151.985-.486.985-.892 0-3.057-3.211-4.34-6.886-.259-.713-.512-1.001-1.185-1.001h-2.625c-.749 0-.9.345-.9.731 0 .682.892 4.073 4.148 8.553 2.17 3.058 5.226 4.715 8.006 4.715 1.671 0 1.875-.368 1.875-1.001 0-2.922-.151-3.198.686-3.198.388 0 1.056.192 2.616 1.667 1.783 1.749 2.076 2.532 3.074 2.532h2.624c.748 0 1.127-.368.909-1.094-.499-1.527-3.871-4.668-4.023-4.878z"/> 
        </g>
    </symbol>

    <symbol id="yandex" viewBox="0 0 320 320">
       <g>
	        <path d="M227.184,0h-45.466c-46.063,0-92.541,34.014-92.541,110.004c0,39.361,16.683,70.017,47.263,87.451
            L80.468,298.762c-2.653,4.791-2.722,10.221-0.185,14.525C82.76,317.49,87.288,320,92.395,320h28.311
            c6.432,0,11.448-3.109,13.852-8.555L187.037,208.8h3.83v98.407c0,6.935,5.852,12.793,12.778,12.793h24.735
            c7.767,0,13.191-5.424,13.191-13.19V14.002C241.572,5.758,235.656,0,227.184,0z M190.868,163.204h-6.756
            c-26.197,0-41.837-21.384-41.837-57.202c0-44.537,19.757-60.405,38.247-60.405h10.346V163.204z"/>
        </g>
    </symbol>

    <symbol id="youtube" viewBox="0 0 512 512">
       <g>
            <path d="M490.24,113.92c-13.888-24.704-28.96-29.248-59.648-30.976C399.936,80.864,322.848,80,256.064,80
            c-66.912,0-144.032,0.864-174.656,2.912c-30.624,1.76-45.728,6.272-59.744,31.008C7.36,138.592,0,181.088,0,255.904
			C0,255.968,0,256,0,256c0,0.064,0,0.096,0,0.096v0.064c0,74.496,7.36,117.312,21.664,141.728
			c14.016,24.704,29.088,29.184,59.712,31.264C112.032,430.944,189.152,432,256.064,432c66.784,0,143.872-1.056,174.56-2.816
			c30.688-2.08,45.76-6.56,59.648-31.264C504.704,373.504,512,330.688,512,256.192c0,0,0-0.096,0-0.16c0,0,0-0.064,0-0.096
			C512,181.088,504.704,138.592,490.24,113.92z M192,352V160l160,96L192,352z"/>
	</g>
    </symbol>

     <symbol id="journal" viewBox="0 0 512 512">
                <g>
                    <path d="M442.384,103.015l-0.664-0.667c-3.906-3.904-10.236-3.904-14.143,0c-3.905,3.905-3.905,10.237,0,14.143l0.6,0.6
                        c1.955,1.974,4.529,2.962,7.104,2.962c2.544,0,5.089-0.964,7.038-2.896C446.243,113.27,446.272,106.939,442.384,103.015z"/>
                </g>
                <g>
                    <path d="M473.511,141.588c-3.005-4.633-9.198-5.954-13.831-2.946c-4.634,3.006-5.952,9.199-2.946,13.832
                        c56.077,86.432,43.815,202.128-29.156,275.099C386.031,469.119,330.792,492,272.036,492s-113.995-22.881-155.541-64.428
                        c-41.547-41.546-64.428-96.785-64.428-155.541c0-25.295,4.251-49.935,12.397-73.115l176.908,176.907
                        c1.389,1.41,3.177,2.387,5.146,2.784l62.786,12.665c0.024,0.005,0.048,0.01,0.072,0.014l87.859,17.723
                        c0.658,0.132,1.32,0.197,1.978,0.197c2.625,0,5.177-1.035,7.071-2.929c2.368-2.369,3.394-5.766,2.731-9.049l-17.729-87.887
                        c-0.005-0.025-0.01-0.05-0.015-0.075l-12.659-62.754c-0.397-1.969-1.358-3.688-2.68-5.029c-0.037-0.038-0.066-0.08-0.104-0.117
                        L198.897,64.435c60.539-21.41,129.07-15.745,186.934,19.285c4.726,2.861,10.873,1.348,13.733-3.375
                        c2.86-4.725,1.349-10.874-3.376-13.734c-45.104-27.307-98.954-39.02-151.636-32.979c-21.293,2.441-41.792,7.591-61.188,15.271
                        L137.391,2.929c-2.896-2.895-7.262-3.733-11.022-2.115C98.424,12.834,73.267,29.918,51.595,51.59
                        C29.924,73.261,12.84,98.418,0.819,126.363c-1.617,3.761-0.779,8.128,2.115,11.023l45.99,45.99
                        c-11.056,27.839-16.856,57.8-16.856,88.656c0,64.098,24.961,124.359,70.285,169.683C147.677,487.039,207.938,512,272.036,512
                        s124.359-24.961,169.684-70.285c39.09-39.09,63.629-90.858,69.098-145.769C516.21,241.798,502.961,186.98,473.511,141.588z
                        M386.433,386.428l-60.407-12.185c5.576-10.025,12.524-19.229,20.759-27.464c8.233-8.234,17.438-15.182,27.463-20.758
                        L386.433,386.428z M370.127,305.591c-13.834,6.912-26.418,15.98-37.485,27.046c-11.066,11.067-20.135,23.651-27.047,37.485
                        l-42.75-8.624c10.547-21.156,24.405-40.402,41.332-57.328c16.925-16.926,36.171-30.785,57.326-41.331L370.127,305.591z
                        M351.594,245.417c-22.701,11.447-43.36,26.411-61.561,44.611c-18.199,18.2-33.164,38.859-44.611,61.562L72.667,178.835
                        c10.711-22.875,25.437-43.954,43.828-62.345c18.546-18.546,39.692-33.191,62.348-43.824L351.594,245.417z M21.949,128.116
                        c10.813-23.158,25.521-44.117,43.789-62.385c18.268-18.268,39.227-32.976,62.384-43.788l35.727,35.727
                        c-22.463,11.355-43.152,26.334-61.495,44.677c-18.311,18.311-33.294,39.063-44.655,61.518L21.949,128.116z"/>
                </g>
                <g>
                    <path d="M194.376,225.129l-62.347-62.347c-3.906-3.905-10.236-3.905-14.143,0c-3.904,3.906-3.904,10.238,0.001,14.143
                        l62.347,62.347c1.953,1.953,4.512,2.929,7.071,2.929c2.559,0,5.118-0.976,7.071-2.929
                        C198.281,235.367,198.281,229.035,194.376,225.129z"/>
                </g>
                <g>
                    <path d="M221.852,252.607l-0.083-0.083c-3.893-3.916-10.225-3.935-14.143-0.042c-3.916,3.894-3.935,10.226-0.041,14.142
                        l0.083,0.083c1.954,1.966,4.522,2.95,7.092,2.95c2.55,0,5.1-0.969,7.051-2.908C225.727,262.855,225.746,256.523,221.852,252.607z"
                        />
                </g>
    </symbol>

    <symbol id="mail" viewBox="0 0 24 24">
       <g>
           <circle cx="8.1241" cy="7.06317" r="1.66129"/><circle cx="15.87679" cy="7.06317" r="1.66129" /><path d="M2.98242,18.03076a1.00007,1.00007,0,0,1-.84668-1.53027L4.646,12.48584a.99986.99986,0,0,1,1.69531,1.06055L3.83105,17.561A.99861.99861,0,0,1,2.98242,18.03076Z" /><path d="M11.99121,18.72314a9.94267,9.94267,0,0,1-7.88428-3.84863l1.57617-1.23145a8.00027,8.00027,0,0,0,12.61377.00391l1.5752,1.23145A9.94309,9.94309,0,0,1,11.99121,18.72314Z" /><path d="M21.00928,18.03076a.99861.99861,0,0,1-.84863-.46973l-2.51025-4.01465a.99986.99986,0,0,1,1.69531-1.06055L21.856,16.50049a1.00007,1.00007,0,0,1-.84668,1.53027Z" />
	    </g>
    </symbol>

</svg>